<svg width="56" height="17" viewBox="0 0 56 17" fill="none" xmlns="http://www.w3.org/2000/svg">
<path d="M0.694 16V0.644H4.038V13.03H9.89V16H0.694ZM17.6392 16.264C16.6272 16.264 15.7032 16.0953 14.8672 15.758C14.0312 15.4207 13.3198 14.922 12.7332 14.262C12.1465 13.5873 11.6918 12.7587 11.3692 11.776C11.0465 10.7787 10.8852 9.62733 10.8852 8.322C10.8852 7.01667 11.0465 5.87267 11.3692 4.89C11.6918 3.89267 12.1465 3.064 12.7332 2.404C13.3198 1.72933 14.0312 1.22333 14.8672 0.885999C15.7032 0.548666 16.6272 0.379999 17.6392 0.379999C18.6512 0.379999 19.5752 0.548666 20.4112 0.885999C21.2472 1.22333 21.9585 1.72933 22.5452 2.404C23.1318 3.064 23.5865 3.89267 23.9092 4.89C24.2318 5.87267 24.3932 7.01667 24.3932 8.322C24.3932 9.62733 24.2318 10.7787 23.9092 11.776C23.5865 12.7587 23.1318 13.5873 22.5452 14.262C21.9585 14.922 21.2472 15.4207 20.4112 15.758C19.5752 16.0953 18.6512 16.264 17.6392 16.264ZM17.6392 13.294C18.6512 13.294 19.4358 12.964 19.9932 12.304C20.5652 11.644 20.8512 10.698 20.8512 9.466V7.178C20.8512 5.946 20.5652 5 19.9932 4.34C19.4358 3.68 18.6512 3.35 17.6392 3.35C16.6272 3.35 15.8352 3.68 15.2632 4.34C14.7058 5 14.4272 5.946 14.4272 7.178V9.466C14.4272 10.698 14.7058 11.644 15.2632 12.304C15.8352 12.964 16.6272 13.294 17.6392 13.294ZM36.9302 13.558H36.8202C36.7029 14.3353 36.3069 14.9807 35.6322 15.494C34.9576 16.0073 34.0409 16.264 32.8822 16.264C32.0022 16.264 31.1809 16.0953 30.4182 15.758C29.6556 15.4207 28.9882 14.922 28.4162 14.262C27.8442 13.602 27.3969 12.7807 27.0742 11.798C26.7516 10.8153 26.5902 9.67867 26.5902 8.388C26.5902 7.09733 26.7589 5.95333 27.0962 4.956C27.4336 3.95867 27.9029 3.12267 28.5042 2.448C29.1202 1.77333 29.8536 1.26 30.7042 0.907999C31.5549 0.555999 32.5009 0.379999 33.5422 0.379999C34.9209 0.379999 36.1089 0.680666 37.1062 1.282C38.1036 1.86867 38.8882 2.756 39.4602 3.944L36.7322 5.506C36.4976 4.90467 36.1309 4.39867 35.6322 3.988C35.1336 3.56267 34.4369 3.35 33.5422 3.35C32.5009 3.35 31.6722 3.65067 31.0562 4.252C30.4402 4.85333 30.1322 5.79933 30.1322 7.09V9.554C30.1322 10.83 30.4402 11.776 31.0562 12.392C31.6722 12.9933 32.5009 13.294 33.5422 13.294C33.9529 13.294 34.3416 13.25 34.7082 13.162C35.0749 13.0593 35.3976 12.9127 35.6762 12.722C35.9549 12.5167 36.1676 12.2747 36.3142 11.996C36.4756 11.7173 36.5562 11.3873 36.5562 11.006V10.236H33.6962V7.442H39.7462V16H36.9302V13.558ZM49.1567 16.264C48.1447 16.264 47.2207 16.0953 46.3847 15.758C45.5487 15.4207 44.8374 14.922 44.2507 14.262C43.6641 13.5873 43.2094 12.7587 42.8867 11.776C42.5641 10.7787 42.4027 9.62733 42.4027 8.322C42.4027 7.01667 42.5641 5.87267 42.8867 4.89C43.2094 3.89267 43.6641 3.064 44.2507 2.404C44.8374 1.72933 45.5487 1.22333 46.3847 0.885999C47.2207 0.548666 48.1447 0.379999 49.1567 0.379999C50.1687 0.379999 51.0927 0.548666 51.9287 0.885999C52.7647 1.22333 53.4761 1.72933 54.0627 2.404C54.6494 3.064 55.1041 3.89267 55.4267 4.89C55.7494 5.87267 55.9107 7.01667 55.9107 8.322C55.9107 9.62733 55.7494 10.7787 55.4267 11.776C55.1041 12.7587 54.6494 13.5873 54.0627 14.262C53.4761 14.922 52.7647 15.4207 51.9287 15.758C51.0927 16.0953 50.1687 16.264 49.1567 16.264ZM49.1567 13.294C50.1687 13.294 50.9534 12.964 51.5107 12.304C52.0827 11.644 52.3687 10.698 52.3687 9.466V7.178C52.3687 5.946 52.0827 5 51.5107 4.34C50.9534 3.68 50.1687 3.35 49.1567 3.35C48.1447 3.35 47.3527 3.68 46.7807 4.34C46.2234 5 45.9447 5.946 45.9447 7.178V9.466C45.9447 10.698 46.2234 11.644 46.7807 12.304C47.3527 12.964 48.1447 13.294 49.1567 13.294Z" fill="#14203E" fill-opacity="0.24"/>
</svg>
